<?xml version="1.0" encoding="utf-8"?>
<!-- Generator: Adobe Illustrator 25.4.1, SVG Export Plug-In . SVG Version: 6.00 Build 0)  -->
<svg version="1.1" id="Layer_1" xmlns="http://www.w3.org/2000/svg" xmlns:xlink="http://www.w3.org/1999/xlink" x="0px" y="0px"
	 viewBox="0 0 1000 1000" style="enable-background:new 0 0 1000 1000;" xml:space="preserve">
<path d="M897.6,295.5c0.6,8.8,0.6,17.6,0.6,26.5c0,271.1-206.3,583.7-583.7,583.7v-0.2c-111.5,0.2-220.6-31.8-314.4-92
	c16.2,1.9,32.5,2.9,48.8,3c92.4,0.1,182.1-30.9,254.8-88C216,726.9,139,669.7,112.1,586.1c30.7,5.9,62.4,4.7,92.6-3.5
	C109,563.3,40.2,479.2,40.2,381.5v-2.6c28.5,15.9,60.4,24.7,93.1,25.7C43.1,344.4,15.3,224.5,69.8,130.7
	C173.9,258.9,327.6,336.8,492.5,345c-16.5-71.2,6.1-145.9,59.3-196c82.6-77.7,212.6-73.7,290.2,8.9c45.9-9.1,90-25.9,130.3-49.8
	c-15.3,47.5-47.4,87.8-90.2,113.5c40.7-4.8,80.4-15.7,117.8-32.3C972.5,230.5,937.8,266.5,897.6,295.5L897.6,295.5z"/>
</svg>
