<?xml version="1.0" encoding="utf-8"?>
<!-- Generator: Adobe Illustrator 25.4.1, SVG Export Plug-In . SVG Version: 6.00 Build 0)  -->
<svg version="1.1" id="Layer_1" xmlns="http://www.w3.org/2000/svg" xmlns:xlink="http://www.w3.org/1999/xlink" x="0px" y="0px"
	 viewBox="0 0 1000 1000" style="enable-background:new 0 0 1000 1000;" xml:space="preserve">
<path d="M979.1,257.7L979.1,257.7c-11.5-43.3-45.4-77.4-88.4-89c-78-21-390.7-21-390.7-21s-312.7,0-390.7,21
	c-43,11.6-76.9,45.7-88.4,89C0,336.2,0,500,0,500s0,163.8,20.9,242.3c11.5,43.3,45.4,77.4,88.4,89c78,21,390.7,21,390.7,21
	s312.7,0,390.7-21c43-11.6,76.9-45.7,88.4-89C1000,663.8,1000,500,1000,500S1000,336.2,979.1,257.7z M397.7,648.7V351.3L659.1,500
	L397.7,648.7z"/>
</svg>
